HIERARCHY
ROOT Hips
{
  OFFSET 5.84602e-005 68.8428 3.50346
  CHANNELS 6 Xposition Yposition Zposition Zrotation Xrotation Yrotation
  JOINT Spine
  {
    OFFSET 0 8.597 -4.6522
    CHANNELS 3 Zrotation Xrotation Yrotation
    JOINT Spine1
    {
      OFFSET 0 7.8454 0.4098
      CHANNELS 3 Zrotation Xrotation Yrotation
      JOINT Spine2
      {
        OFFSET 0 9.7078 -2.1609
        CHANNELS 3 Zrotation Xrotation Yrotation
        JOINT Neck
        {
          OFFSET 0 21.8761 -0.4549
          CHANNELS 3 Zrotation Xrotation Yrotation
          JOINT Head
          {
            OFFSET 0 12.3537 3.3602
            CHANNELS 3 Zrotation Xrotation Yrotation
            End Site
            {
              OFFSET 0.0001 18.9506 0.5657
            }
          }
        }
        JOINT LeftShoulder
        {
          OFFSET 2.2086 21.1115 7.2329
          CHANNELS 3 Zrotation Xrotation Yrotation
          JOINT LeftArm
          {
            OFFSET 13.1193 3.0282 -4.8998
            CHANNELS 3 Zrotation Xrotation Yrotation
            JOINT LeftForeArm
            {
              OFFSET 27.4081 -0.0973053 -0.2375
              CHANNELS 3 Zrotation Xrotation Yrotation
              JOINT LeftHand
              {
                OFFSET 22.8641 0.0662994 -0.1369
                CHANNELS 3 Zrotation Xrotation Yrotation
                JOINT LeftHandIndex1
                {
                  OFFSET 8.8614 0.775009 2.4612
                  CHANNELS 3 Zrotation Xrotation Yrotation
                  JOINT LeftHandIndex2
                  {
                    OFFSET 3.3146 -0.808304 0.5841
                    CHANNELS 3 Zrotation Xrotation Yrotation
                    JOINT LeftHandIndex3
                    {
                      OFFSET 2.2628 -0.552002 0.3989
                      CHANNELS 3 Zrotation Xrotation Yrotation
                      End Site
                      {
                        OFFSET 1.6102 -0.4807 0.2612
                      }
                    }
                  }
                }
                JOINT LeftHandMiddle1
                {
                  OFFSET 8.9937 0.895004 0.2143
                  CHANNELS 3 Zrotation Xrotation Yrotation
                  JOINT LeftHandMiddle2
                  {
                    OFFSET 4.0984 0.0113983 -0.0242
                    CHANNELS 3 Zrotation Xrotation Yrotation
                    JOINT LeftHandMiddle3
                    {
                      OFFSET 2.2716 0.00689697 -0.0138001
                      CHANNELS 3 Zrotation Xrotation Yrotation
                      End Site
                      {
                        OFFSET 2.0404 -0.1441 0.0027
                      }
                    }
                  }
                }
                JOINT LeftHandRing1
                {
                  OFFSET 8.5234 0.597198 -2.0164
                  CHANNELS 3 Zrotation Xrotation Yrotation
                  JOINT LeftHandRing2
                  {
                    OFFSET 3.7188 -0.188293 -0.2328
                    CHANNELS 3 Zrotation Xrotation Yrotation
                    JOINT LeftHandRing3
                    {
                      OFFSET 2.1191 -0.106598 -0.1332
                      CHANNELS 3 Zrotation Xrotation Yrotation
                      End Site
                      {
                        OFFSET 1.8737 -0.2304 -0.0886
                      }
                    }
                  }
                }
                JOINT LeftHandPinky1
                {
                  OFFSET 7.9094 -0.601089 -3.4825
                  CHANNELS 3 Zrotation Xrotation Yrotation
                  JOINT LeftHandPinky2
                  {
                    OFFSET 2.2874 -0.477005 -0.6314
                    CHANNELS 3 Zrotation Xrotation Yrotation
                    JOINT LeftHandPinky3
                    {
                      OFFSET 1.6774 -0.349396 -0.4633
                      CHANNELS 3 Zrotation Xrotation Yrotation
                      End Site
                      {
                        OFFSET 1.4888 -0.4091 -0.3416
                      }
                    }
                  }
                }
                JOINT LeftHandThumb1
                {
                  OFFSET 1.833 -1.3875 1.3896
                  CHANNELS 3 Zrotation Xrotation Yrotation
                  JOINT LeftHandThumb2
                  {
                    OFFSET 3.4129 -1.121 2.5732
                    CHANNELS 3 Zrotation Xrotation Yrotation
                    JOINT LeftHandThumb3
                    {
                      OFFSET 2.2474 -0.804199 1.6192
                      CHANNELS 3 Zrotation Xrotation Yrotation
                      End Site
                      {
                        OFFSET 1.6527 -0.5689 1.1317
                      }
                    }
                  }
                }
              }
            }
          }
        }
        JOINT RightShoulder
        {
          OFFSET -2.2086 21.1115 7.2329
          CHANNELS 3 Zrotation Xrotation Yrotation
          JOINT RightArm
          {
            OFFSET -13.1216 3.0287 -4.9007
            CHANNELS 3 Zrotation Xrotation Yrotation
            JOINT RightForeArm
            {
              OFFSET -27.4081 -0.0973053 -0.2375
              CHANNELS 3 Zrotation Xrotation Yrotation
              JOINT RightHand
              {
                OFFSET -22.8641 0.0664063 -0.1369
                CHANNELS 3 Zrotation Xrotation Yrotation
                JOINT RightHandIndex1
                {
                  OFFSET -8.8614 0.774994 2.4612
                  CHANNELS 3 Zrotation Xrotation Yrotation
                  JOINT RightHandIndex2
                  {
                    OFFSET -3.3146 -0.808304 0.5841
                    CHANNELS 3 Zrotation Xrotation Yrotation
                    JOINT RightHandIndex3
                    {
                      OFFSET -2.2628 -0.552002 0.3989
                      CHANNELS 3 Zrotation Xrotation Yrotation
                      End Site
                      {
                        OFFSET -1.6102 -0.4807 0.2612
                      }
                    }
                  }
                }
                JOINT RightHandMiddle1
                {
                  OFFSET -8.9937 0.894989 0.2143
                  CHANNELS 3 Zrotation Xrotation Yrotation
                  JOINT RightHandMiddle2
                  {
                    OFFSET -4.0984 0.0113983 -0.0242
                    CHANNELS 3 Zrotation Xrotation Yrotation
                    JOINT RightHandMiddle3
                    {
                      OFFSET -2.2716 0.00691223 -0.0138001
                      CHANNELS 3 Zrotation Xrotation Yrotation
                      End Site
                      {
                        OFFSET -2.0404 -0.1441 0.0027
                      }
                    }
                  }
                }
                JOINT RightHandRing1
                {
                  OFFSET -8.5234 0.597198 -2.0164
                  CHANNELS 3 Zrotation Xrotation Yrotation
                  JOINT RightHandRing2
                  {
                    OFFSET -3.7188 -0.188309 -0.2328
                    CHANNELS 3 Zrotation Xrotation Yrotation
                    JOINT RightHandRing3
                    {
                      OFFSET -2.1191 -0.106598 -0.1332
                      CHANNELS 3 Zrotation Xrotation Yrotation
                      End Site
                      {
                        OFFSET -1.8737 -0.2304 -0.0886
                      }
                    }
                  }
                }
                JOINT RightHandPinky1
                {
                  OFFSET -7.9094 -0.601105 -3.4825
                  CHANNELS 3 Zrotation Xrotation Yrotation
                  JOINT RightHandPinky2
                  {
                    OFFSET -2.2874 -0.477005 -0.6314
                    CHANNELS 3 Zrotation Xrotation Yrotation
                    JOINT RightHandPinky3
                    {
                      OFFSET -1.6774 -0.349396 -0.4633
                      CHANNELS 3 Zrotation Xrotation Yrotation
                      End Site
                      {
                        OFFSET -1.4888 -0.4091 -0.3416
                      }
                    }
                  }
                }
                JOINT RightHandThumb1
                {
                  OFFSET -1.833 -1.38751 1.3896
                  CHANNELS 3 Zrotation Xrotation Yrotation
                  JOINT RightHandThumb2
                  {
                    OFFSET -3.41299 -1.12099 2.5732
                    CHANNELS 3 Zrotation Xrotation Yrotation
                    JOINT RightHandThumb3
                    {
                      OFFSET -2.24741 -0.804108 1.6192
                      CHANNELS 3 Zrotation Xrotation Yrotation
                      End Site
                      {
                        OFFSET -1.6527 -0.5689 1.1317
                      }
                    }
                  }
                }
              }
            }
          }
        }
      }
    }
  }
  JOINT RightUpLeg
  {
    OFFSET -9.1966 3.8861 -0.7581
    CHANNELS 3 Zrotation Xrotation Yrotation
    JOINT RightLeg
    {
      OFFSET -0.7359 -41.0265 0
      CHANNELS 3 Zrotation Xrotation Yrotation
      JOINT RightFoot
      {
        OFFSET 0 -40.2855 0
        CHANNELS 3 Zrotation Xrotation Yrotation
        JOINT RightToeBase
        {
          OFFSET 0 -5.6122 11.7359
          CHANNELS 3 Zrotation Xrotation Yrotation
          End Site
          {
            OFFSET 0 0 7.8731
          }
        }
      }
    }
  }
  JOINT LeftUpLeg
  {
    OFFSET 9.1965 3.8864 -0.7581
    CHANNELS 3 Zrotation Xrotation Yrotation
    JOINT LeftLeg
    {
      OFFSET 0.7359 -41.0268 0
      CHANNELS 3 Zrotation Xrotation Yrotation
      JOINT LeftFoot
      {
        OFFSET 0 -40.2855 0
        CHANNELS 3 Zrotation Xrotation Yrotation
        JOINT LeftToeBase
        {
          OFFSET 0 -5.6122 11.7359
          CHANNELS 3 Zrotation Xrotation Yrotation
          End Site
          {
            OFFSET 0 0 7.8731
          }
        }
      }
    }
  }
}
MOTION
Frames:	5
Frame Time:	0.0333333
5.84602e-005 68.8428 3.50346 0 0 -0 0 0 -0 0 0 -0 0 0 -0 0 0 -0 0 0 -0 0 0 -0 0 0 -0 0 0 -0 0 0 -0 0 0 -0 0 0 -0 0 0 -0 0 0 -0 -0.0146107 -8.87603e-005 -2.63497e-007 2.99804e-018 -2.42657e-020 -1.42182e-022 0 0 -0 -0.0187562 -0.001176 5.858e-005 5.06224e-018 3.88251e-019 1.21329e-020 0 0 -0 -0.012269 -0.00324817 0.000675346 -1.74678e-018 3.88251e-019 -0 0 0 -0 0 0 -0 0 0 -0 0 0 -0 0 0 -0 0 0 -0 0 0 -0 0 0 -0 0 0 -0 0 0 -0 0 0 -0 0.0149955 -9.10982e-005 2.64101e-007 -9.69331e-018 1.21329e-020 -4.7394e-023 0 0 -0 0.0189956 -0.00119102 -5.96516e-005 -5.41541e-019 0 2.42657e-020 0 0 -0 0.0122698 -0.00324857 -0.000673756 -2.00796e-019 0 -1.94126e-019 0 0 -0 0 0 -0 0 0 -0 3.39842 1.33031 -0.0637918 -5.65207e-008 0.834868 -0.000436188 -3.39935 -2.16518 -0.0642563 -8.89002e-024 -1.18485e-023 -1.48106e-024 -3.39844 1.35642 0.0640283 -3.18788e-007 0.782166 -0.000588827 3.39931 -2.13858 0.0634662 1.1399e-023 0 -0 
41.534 39.9003 18.8537 179.993 59.0055 -30.0017 -1.39805 10.1868 3.97935 -3.61103 20.2446 8.41718 -3.61104 20.2446 8.41719 1.51768e-005 13.9935 -1.19864e-005 -0.0996643 -0.159111 -0.00013761 -32.575 -2.1803 -7.86966 -36.7615 54.8068 1.66286 8.67945 34.9919 -11.423 6.84699 -16.9223 -6.386 -1.46158e-009 2.37506e-007 4.12235e-006 1.19271e-015 2.98177e-016 -0 -1.88911e-008 1.03927e-007 1.31183e-006 -1.46158e-009 2.37506e-007 4.12235e-006 -0.0145912 -8.85503e-005 3.9458e-006 -2.01091e-008 1.03752e-007 1.31185e-006 -1.46158e-009 2.37506e-007 4.12235e-006 -0.01869 -0.00117127 6.44174e-005 -5.31241e-010 2.36889e-007 4.12238e-006 -1.46158e-009 2.37506e-007 4.12235e-006 -0.0122672 -0.00324731 0.000672544 -7.60492e-010 2.37219e-007 4.12234e-006 -1.46158e-009 2.37506e-007 4.12235e-006 1.19271e-015 2.98177e-016 -0 -1.88911e-008 1.03927e-007 1.31183e-006 -20.9873 -10.1951 24.5151 87.6854 -28.5264 25.236 28.5125 27.6758 24.7222 28.1842 -34.7832 7.30989 -3.18055e-015 0 1.59028e-015 6.64616e-006 -6.47206e-008 -1.5681e-006 -4.44976e-007 2.83714e-007 -6.63904e-007 -3.18055e-015 0 1.59028e-015 0.0149893 -8.44434e-005 1.38289e-006 -2.22324e-006 -1.69895e-006 -4.18907e-007 -3.18055e-015 0 1.59028e-015 0.0190473 -0.00119207 -6.13906e-005 -4.44999e-007 2.83605e-007 -6.63946e-007 -3.18055e-015 0 1.59028e-015 0.0122495 -0.00323582 -0.000675738 -4.45007e-007 2.83643e-007 -6.63921e-007 -3.18055e-015 0 1.59028e-015 6.64616e-006 -6.47206e-008 -1.5681e-006 -4.44976e-007 2.83714e-007 -6.63904e-007 -76.9128 -36.4146 -68.7057 -121.372 66.6086 148.769 -27.1283 8.85863 4.08736 -7.06225e-031 6.36111e-015 6.36111e-015 63.3624 -51.0298 64.2486 3.12042 19.9246 -0.0857102 3.7821 -2.17221 0.0717287 8.46457e-007 9.82659e-009 7.73255e-008 
41.5431 39.9315 18.8561 179.993 59.0055 -30.0017 -1.33406 9.97831 3.99588 -3.46322 19.8327 8.42506 -3.46322 19.8327 8.42505 8.59117e-005 13.6042 -3.45682e-005 -0.0996781 -0.547732 -0.000961134 -34.4012 -1.60969 -7.04051 -34.6925 54.8191 1.583 8.21201 35.0618 -10.8754 6.69296 -16.4917 -6.89274 -1.84247e-007 5.66119e-008 8.23012e-006 1.70307e-007 1.28519e-007 -3.54559e-009 -5.68475e-008 2.78637e-008 5.45336e-006 -1.84247e-007 5.66119e-008 8.23012e-006 -0.0146237 -8.90531e-005 1.39206e-006 -5.73687e-008 2.71646e-008 5.45337e-006 -1.84247e-007 5.66119e-008 8.23012e-006 -0.0187362 -0.00117485 5.608e-005 -5.74648e-008 2.693e-008 5.45337e-006 -1.84247e-007 5.66119e-008 8.23012e-006 -0.0122481 -0.00324363 0.000670828 -5.7133e-008 2.71646e-008 5.45339e-006 -1.84247e-007 5.66119e-008 8.23012e-006 1.70307e-007 1.28519e-007 -3.54559e-009 -5.68475e-008 2.78637e-008 5.45336e-006 -20.4306 -9.12351 25.1358 87.4639 -28.626 25.2666 28.3592 27.6066 24.5216 27.2857 -34.8059 5.6289 8.82781e-032 3.18055e-015 -1.59028e-015 5.28891e-006 8.60826e-007 -3.58173e-006 7.13052e-006 2.87005e-006 -3.65178e-006 8.82781e-032 3.18055e-015 -1.59028e-015 0.0149929 -8.8642e-005 -6.78701e-007 5.2892e-006 8.60356e-007 -3.58185e-006 8.82781e-032 3.18055e-015 -1.59028e-015 0.0190012 -0.00118513 -5.66627e-005 5.28924e-006 8.60211e-007 -3.58193e-006 8.82781e-032 3.18055e-015 -1.59028e-015 0.0123087 -0.00325464 -0.000678441 5.28904e-006 8.60408e-007 -3.58199e-006 8.82781e-032 3.18055e-015 -1.59028e-015 5.28891e-006 8.60826e-007 -3.58173e-006 7.13052e-006 2.87005e-006 -3.65178e-006 -77.6451 -36.9399 -69.2218 -121.997 66.7338 149.313 -27.1349 8.84104 4.09119 2.07327e-006 7.33436e-008 -6.19288e-006 63.3603 -51.0318 64.2472 3.12016 19.9168 -0.0853273 3.78469 -2.16476 0.0715313 -3.77691e-015 -1.19271e-015 2.98177e-016 
41.5523 39.9628 18.8584 179.993 59.0055 -30.0017 -1.26936 9.76864 4.01122 -3.31391 19.4184 8.43094 -3.31391 19.4183 8.43094 3.47996e-006 13.2148 -5.95355e-006 -0.0997019 -0.936429 -0.00178586 -36.2415 -1.06399 -6.19085 -32.6124 54.8299 1.50194 7.74324 35.1281 -10.3264 6.54314 -16.0595 -7.39747 -3.97569e-016 1.19271e-015 3.18055e-015 -3.97569e-016 1.09332e-015 3.18055e-015 -6.62086e-032 1.19271e-015 3.18055e-015 -3.97569e-016 1.19271e-015 3.18055e-015 -0.0145925 -8.87912e-005 -7.51602e-007 0 2.98177e-016 -0 -3.97569e-016 1.19271e-015 3.18055e-015 -0.0187638 -0.00117649 5.27217e-005 2.20695e-032 -1.98785e-016 6.36111e-015 -3.97569e-016 1.19271e-015 3.18055e-015 -0.0122977 -0.00325556 0.000671226 -6.06912e-032 1.09332e-015 3.18055e-015 -3.97569e-016 1.19271e-015 3.18055e-015 -3.97569e-016 1.09332e-015 3.18055e-015 -6.62086e-032 1.19271e-015 3.18055e-015 -19.8861 -8.04375 25.7456 87.2421 -28.7256 25.2968 28.2059 27.5377 24.3209 26.3844 -34.807 3.9435 -6.36111e-015 -9.54166e-015 -7.95139e-015 3.18055e-015 -3.18055e-015 1.59028e-015 1.76556e-031 6.36111e-015 -1.59028e-015 -6.36111e-015 -9.54166e-015 -7.95139e-015 0.0150021 -8.93245e-005 1.20878e-006 6.36111e-015 -3.18055e-015 1.59028e-015 -6.36111e-015 -9.54166e-015 -7.95139e-015 0.0190237 -0.00119006 -5.95739e-005 3.18055e-015 0 -0 -6.36111e-015 -9.54166e-015 -7.95139e-015 0.0122836 -0.00325155 -0.000674815 -6.36111e-015 3.18055e-015 1.59028e-015 -6.36111e-015 -9.54166e-015 -7.95139e-015 3.18055e-015 -3.18055e-015 1.59028e-015 1.76556e-031 6.36111e-015 -1.59028e-015 -78.3888 -37.4606 -69.7501 -122.628 66.8564 149.863 -27.1414 8.82315 4.09478 -3.18055e-015 -9.54166e-015 -4.77083e-015 63.358 -51.0338 64.2457 3.11988 19.9088 -0.0849476 3.78725 -2.15715 0.0713284 -8.46457e-007 -9.82654e-009 -7.73255e-008 
41.5616 39.994 18.8606 179.993 59.0055 -30.0017 -1.20401 9.55781 4.02528 -3.16323 19.0019 8.43486 -3.16323 19.002 8.43487 3.41746e-005 12.8253 -2.08257e-005 -0.0997264 -1.3252 -0.00261169 -38.0944 -0.544567 -5.32182 -30.5226 54.8389 1.4199 7.27323 35.1907 -9.77619 6.39756 -15.6259 -7.90016 -3.97569e-016 2.98177e-016 3.18055e-015 3.97569e-016 2.98177e-016 -0 3.97569e-016 5.96354e-016 3.18055e-015 -3.97569e-016 2.98177e-016 3.18055e-015 -0.0146269 -8.86548e-005 6.91931e-006 7.95139e-016 -3.97569e-016 3.18055e-015 -3.97569e-016 2.98177e-016 3.18055e-015 -0.0187293 -0.00117443 4.9857e-005 -3.97569e-016 0 3.18055e-015 -3.97569e-016 2.98177e-016 3.18055e-015 -0.0122988 -0.00325565 0.000683764 -3.97569e-016 9.93923e-016 1.27222e-014 -3.97569e-016 2.98177e-016 3.18055e-015 3.97569e-016 2.98177e-016 -0 3.97569e-016 5.96354e-016 3.18055e-015 -19.3536 -6.9564 26.3445 87.0201 -28.8254 25.3265 28.0523 27.4693 24.12 25.4817 -34.7862 2.25499 -0 -6.36111e-015 -0 -3.52726e-006 5.47805e-008 5.00818e-007 3.18055e-015 -6.36111e-015 1.59028e-015 -0 -6.36111e-015 -0 0.0150091 -8.85998e-005 3.48911e-006 6.36111e-015 0 -0 -0 -6.36111e-015 -0 0.0189725 -0.00118201 -5.84969e-005 3.18055e-015 6.36111e-015 1.59028e-015 -0 -6.36111e-015 -0 0.0122394 -0.00324274 -0.000677878 6.36111e-015 3.18055e-015 7.95139e-015 -0 -6.36111e-015 -0 -3.52726e-006 5.47805e-008 5.00818e-007 3.18055e-015 -6.36111e-015 1.59028e-015 -79.144 -37.9765 -70.2908 -123.266 66.9763 150.42 -27.1478 8.80502 4.09814 -1.39199e-006 -5.22428e-007 7.69515e-007 63.3561 -51.0357 64.2444 3.11962 19.901 -0.0845847 3.78971 -2.14964 0.0711262 8.46457e-007 9.82653e-009 7.73255e-008 
